PathFileType	4	(X/Y/Z)	marker.trc
DataRate	CameraRate	NumFrames	NumMarkers	Units	OrigDataRate	OrigDataStartFrame	OrigNumFrames
128	128	32	6	m	128	3365	3845
Frame#	Time	US29-1	US29-2	US29-3	US30-1	US30-2	US30-3	
		X1	Y1	Z1	X2	Y2	Z2	X3	Y3	Z3	X4	Y4	Z4	X5	Y5	Z5	X6	Y6	Z6	

3364	26.289062	0.0806465968489647	0.230806723237038	0.106892012059689	0.105809196829796	0.251955717802048	0.0853762552142143	0.0756897628307343	0.253079235553741	0.109260782599449	0.0316408015787601	0.246929511427879	0.0453419797122478	0.0346575900912285	0.235716998577118	0.0685634762048721	0.0255367141216993	0.257246226072311	0.0680216103792191	
3365	26.296875	0.0886606425046921	0.23283626139164	0.107763938605785	0.113332092761993	0.254398375749588	0.0862003639340401	0.0832289233803749	0.254985362291336	0.110154666006565	0.0390445552766323	0.247726440429688	0.0464730486273766	0.0424245111644268	0.236664339900017	0.0697064995765686	0.0328525863587856	0.257985562086105	0.069173090159893	
3366	26.304687	0.0965063273906708	0.234975472092628	0.108501330018044	0.12062580883503	0.257012397050858	0.0869134590029716	0.0906881615519524	0.257026791572571	0.11100922524929	0.0464121103286743	0.248774006962776	0.0475556328892708	0.0500044338405132	0.237915605306625	0.0707965493202209	0.0400347337126732	0.258896887302399	0.0702609419822693	
3367	26.3125	0.104093350470066	0.237321376800537	0.109333470463753	0.127737164497375	0.259714424610138	0.0876124277710915	0.0978497117757797	0.259297758340836	0.111799284815788	0.0535663664340973	0.249957650899887	0.0486572273075581	0.0574196539819241	0.23944416642189	0.0719097182154655	0.0470695197582245	0.259990245103836	0.0713279992341995	
3368	26.320312	0.111582197248936	0.23984383046627	0.110160455107689	0.134602174162865	0.262577444314957	0.0882722735404968	0.104898564517498	0.261603891849518	0.112571455538273	0.0603753365576267	0.251256763935089	0.0497173294425011	0.0644061863422394	0.241138592362404	0.0730979070067406	0.0538174100220203	0.261291652917862	0.0723555311560631	
3369	26.328125	0.118668422102928	0.242419719696045	0.110908254981041	0.141244903206825	0.265534728765488	0.0888690650463104	0.111661247909069	0.264118582010269	0.113354496657848	0.0670857653021812	0.252748847007751	0.0506809242069721	0.0714714154601097	0.242849811911583	0.074163444340229	0.0604624599218369	0.262704223394394	0.073365606367588	
3370	26.335937	0.125580459833145	0.245157271623611	0.111638799309731	0.147813618183136	0.268408983945847	0.0909751653671265	0.118173897266388	0.266657888889313	0.114075861871243	0.073576457798481	0.254384130239487	0.0514240190386772	0.0789775550365448	0.243217214941978	0.0746468007564545	0.0667932778596878	0.264214634895325	0.0743057206273079	
3371	26.34375	0.132234841585159	0.24796624481678	0.112303785979748	0.153932720422745	0.271526634693146	0.0913880616426468	0.124492645263672	0.269365787506104	0.114731006324291	0.079794205725193	0.256175637245178	0.0523670166730881	0.0855933502316475	0.245112478733063	0.075471431016922	0.0730126649141312	0.265927135944366	0.0752069726586342	
3372	26.351562	0.138651445508003	0.250825226306915	0.112963527441025	0.15977381169796	0.274645894765854	0.091856025159359	0.130540877580643	0.272077053785324	0.115371771156788	0.08588557690382	0.257982403039932	0.0531699955463409	0.0918232128024101	0.247182056307793	0.0763346776366234	0.0789556130766869	0.267694562673569	0.0760691091418266	
3373	26.359375	0.144719585776329	0.25375434756279	0.113576330244541	0.165154010057449	0.278146505355835	0.0906616151332855	0.136326044797897	0.274799823760986	0.11598563939333	0.0916498228907585	0.259968250989914	0.0539361648261547	0.0978003218770027	0.249430477619171	0.0770768597722054	0.0845138877630234	0.269583314657211	0.0768916681408882	
3374	26.367187	0.150504738092422	0.256684303283691	0.114126183092594	0.170529767870903	0.281283140182495	0.09107905626297	0.141852349042892	0.277620613574982	0.11652235686779	0.0971918851137161	0.261962562799454	0.0546781532466412	0.103454239666462	0.251676440238953	0.0778111666440964	0.0900292694568634	0.271518021821976	0.0776254162192345	
3375	26.375	0.156070217490196	0.259620547294617	0.114627815783024	0.175620526075363	0.284412652254105	0.0914916917681694	0.147081956267357	0.280421733856201	0.11696619540453	0.102462500333786	0.263982117176056	0.0553893782198429	0.109019361436367	0.253975987434387	0.0784674286842346	0.0951460674405098	0.273514300584793	0.0783485472202301	
3376	26.382812	0.161242321133614	0.262556225061417	0.115038357675076	0.180498942732811	0.287500113248825	0.0919377207756042	0.152097880840302	0.283188730478287	0.117416009306908	0.107334308326244	0.266115695238113	0.056020874530077	0.114229261875153	0.256331890821457	0.0791378766298294	0.100198350846767	0.27558422088623	0.0789443701505661	
3377	26.390625	0.166252821683884	0.265406340360641	0.115461364388466	0.185052439570427	0.290579408407211	0.092181459069252	0.156796246767044	0.285999596118927	0.117864198982716	0.112069569528103	0.268215000629425	0.0565449111163616	0.119197361171246	0.258562803268433	0.0796814039349556	0.104870654642582	0.277645647525787	0.0794876664876938	
3378	26.398437	0.170926555991173	0.268283039331436	0.115836791694164	0.189359188079834	0.293599605560303	0.0924912020564079	0.161270961165428	0.28876855969429	0.11823982745409	0.11626461148262	0.270711213350296	0.0573407523334026	0.123706869781017	0.261692464351654	0.0805376470088959	0.109346807003021	0.279681175947189	0.0799682661890984	
3379	26.40625	0.175333499908447	0.271051049232483	0.116185881197453	0.193481177091599	0.296544432640076	0.0928508192300797	0.165427640080452	0.291381567716599	0.118589706718922	0.1205860003829	0.27282840013504	0.0577768869698048	0.128022238612175	0.26391863822937	0.0810461640357971	0.113571368157864	0.281747251749039	0.0804382264614105	
3380	26.414062	0.179403468966484	0.273738712072372	0.116523541510105	0.197258487343788	0.299388736486435	0.0931153818964958	0.169370085000992	0.293949097394943	0.118880443274975	0.124888934195042	0.274652421474457	0.0581268630921841	0.132323771715164	0.265556216239929	0.0814085155725479	0.117402397096157	0.283769428730011	0.0808572247624397	
3381	26.421875	0.183158665895462	0.276296317577362	0.116828776896	0.200830802321434	0.302057355642319	0.0933230891823769	0.172956436872482	0.29644587635994	0.119142711162567	0.128643780946732	0.276665836572647	0.0584567300975323	0.136134579777718	0.267626851797104	0.0817826837301254	0.121053114533424	0.285734057426453	0.0812588930130005	
3382	26.429687	0.186721801757812	0.278738558292389	0.117088139057159	0.204130753874779	0.304603487253189	0.0935742482542992	0.176317349076271	0.29876509308815	0.119466476142406	0.132137581706047	0.278643250465393	0.0588097870349884	0.139726862311363	0.269665986299515	0.0821323990821838	0.124522037804127	0.287609815597534	0.0815565139055252	
3383	26.4375	0.189940512180328	0.281050801277161	0.117416277527809	0.207174599170685	0.307073622941971	0.0939618498086929	0.179424747824669	0.301034599542618	0.119750954210758	0.135347217321396	0.280481278896332	0.0591026283800602	0.142915964126587	0.271554231643677	0.0824920684099197	0.127618104219437	0.289415270090103	0.0819287672638893	
3384	26.445312	0.192976132035255	0.283219307661057	0.117672681808472	0.209993124008179	0.309299916028976	0.0940718874335289	0.182329505681992	0.303125083446503	0.120038367807865	0.137981683015823	0.282460987567902	0.0595344081521034	0.145686969161034	0.273997664451599	0.0829003527760506	0.130650296807289	0.291147261857986	0.0821415707468987	
3385	26.453125	0.195654034614563	0.285251528024673	0.117891743779182	0.21251767873764	0.311435431241989	0.0943410396575928	0.184944018721581	0.305063337087631	0.120236575603485	0.14113213121891	0.283900678157806	0.0596550777554512	0.148794606328011	0.275145918130875	0.0830460488796234	0.133350193500519	0.292808085680008	0.0823745504021645	
3386	26.460937	0.198130086064339	0.287129133939743	0.11810065060854	0.214892581105232	0.313366532325745	0.0945693403482437	0.187275215983391	0.306884288787842	0.120464570820332	0.143577173352242	0.285479813814163	0.0598240830004215	0.151367202401161	0.276762217283249	0.0832532197237015	0.135760128498077	0.294327944517136	0.0826034918427467	
3387	26.46875	0.200311884284019	0.288832575082779	0.118279948830605	0.216987684369087	0.315133601427078	0.0947037860751152	0.189422860741615	0.308515191078186	0.12065227329731	0.145850136876106	0.286941260099411	0.0599747411906719	0.153641909360886	0.278273582458496	0.0833964943885803	0.137945279479027	0.295775085687637	0.0827437564730644	
3388	26.476562	0.202279761433601	0.290407359600067	0.118447788059711	0.218822330236435	0.316778212785721	0.0949362367391586	0.191239327192307	0.310025125741959	0.120725996792316	0.14744633436203	0.288594484329224	0.0602565333247185	0.155239939689636	0.280278325080872	0.0836294367909431	0.139847412705421	0.297086268663406	0.0828508958220482	
3389	26.484375	0.203985378146172	0.29177924990654	0.118519760668278	0.22048208117485	0.318222343921661	0.0950719267129898	0.1928641051054	0.311376184225082	0.12090040743351	0.149554967880249	0.289538949728012	0.0601520799100399	0.157270327210426	0.280921012163162	0.0836022570729256	0.141637250781059	0.298287838697433	0.0829200372099876	
3390	26.492187	0.205446824431419	0.292980700731277	0.118611007928848	0.221943795681	0.319507718086243	0.0951607674360275	0.194326564669609	0.312573432922363	0.120991662144661	0.15070866048336	0.290929287672043	0.0603223256766796	0.158480316400528	0.282603949308395	0.0837592408061028	0.143049150705338	0.299314618110657	0.082917757332325	
3391	26.5	0.206778511404991	0.294016748666763	0.118640698492527	0.223136931657791	0.32055589556694	0.0951331406831741	0.195588514208794	0.313525974750519	0.12103184312582	0.152397349476814	0.291623890399933	0.0602151155471802	0.160204544663429	0.28298282623291	0.0836609527468681	0.144445791840553	0.300258040428162	0.0829285830259323	
3392	26.507812	0.207878530025482	0.294835209846497	0.118659980595112	0.224206358194351	0.321448534727097	0.09526427090168	0.196664392948151	0.314355164766312	0.121116302907467	0.153611928224564	0.292412370443344	0.0601326674222946	0.161389172077179	0.283753246068954	0.0835888609290123	0.145550146698952	0.301033467054367	0.0828939080238342	
3393	26.515625	0.208777561783791	0.295509785413742	0.118667207658291	0.225142389535904	0.322188466787338	0.0953154265880585	0.197481423616409	0.315053880214691	0.121069386601448	0.154147982597351	0.293298661708832	0.0602186769247055	0.161889255046844	0.284920305013657	0.0836431011557579	0.146456405520439	0.301622629165649	0.0828543454408646	
3394	26.523437	0.209429085254669	0.296006917953491	0.118653148412704	0.225823983550072	0.322728395462036	0.0953300967812538	0.198201596736908	0.315501421689987	0.121072396636009	0.154932856559753	0.293789774179459	0.0601485557854176	0.162606179714203	0.285388857126236	0.0836006328463554	0.147106885910034	0.302057802677155	0.0827864408493042	
3395	26.53125	0.209984555840492	0.296308606863022	0.118661887943745	0.226293757557869	0.323053508996964	0.0953321009874344	0.198722034692764	0.31582435965538	0.121055327355862	0.155479103326797	0.294124960899353	0.0601092465221882	0.163176611065865	0.28573414683342	0.0835819691419601	0.147715121507645	0.30239337682724	0.0827504247426987	
